<?xml version="1.0"?>
<svg version="1.1" id="Слой_1" xmlns="http://www.w3.org/2000/svg" xmlns:xlink="http://www.w3.org/1999/xlink" x="0px" y="0px"
	 viewBox="0 0 300 41" style="enable-background:new 0 0 300 41;" xml:space="preserve">
<path d="M40.7,26.5c0,1.2-0.3,2.4-0.8,3.5c-1.2,2.5-3.4,4.6-6.8,6.2s-6.8,2.5-10.4,2.5c-5.5,0-9.2-1.9-11.2-5.6
	c-3.6,3-6.1,4.5-7.6,4.5c-0.3,0-0.5-0.1-0.7-0.2c-1-0.6-1.6-1.8-1.6-3.6c0-1.8,0.8-4.1,2.3-6.8c1.5-2.7,2.9-4.2,4-4.7
	c0.5-0.2,0.9-0.3,1.2-0.3c1,0,1.8,0.8,2.3,2.5l1.6,5c1-1.1,2.4-2.8,4.1-5.1l4.6-6.2c5.7-7.4,9.4-11.4,11.2-12.1
	c0.6-0.2,1.3-0.4,1.9-0.4c0.7,0,1.2,0.1,1.6,0.4c0.4,0.3,0.7,0.6,0.7,1c0,0.6-0.5,1-1.5,1.1c-1,0.6-3,2.3-6,5.2s-4.7,4.7-5.2,5.4
	c-3.9,5.4-7.5,9.6-10.8,12.5c2.1,4.2,5.3,6.3,9.5,6.3c2.6,0,5.1-0.8,7.6-2.4c2.5-1.6,4.4-3.6,5.7-6c0.6-1,0.8-2.1,0.8-3.4
	s-0.5-2.4-1.5-3.6c-1-1.1-2.2-1.9-3.7-2.5c-0.7-0.1-1.8-0.3-3.3-0.4c-1.5-0.2-2.3-0.5-2.3-1c0-0.2,0.1-0.3,0.2-0.5
	c0.4-0.5,1-0.7,1.6-0.7c0.4,0,0.8,0.1,1.1,0.2c0.4,0.1,0.7,0.2,0.9,0.3c0.2,0.1,0.5,0.2,0.7,0.3c0.8,0.1,1.4,0.1,2,0.1
	c2.3,0,4.4-0.4,6.2-1.1c2.4-0.9,3.9-2.3,4.6-4.2c0.4-1.2,0.6-2.3,0.6-3.3c0-2.4-1.2-4.2-3.5-5.4c-2-1-4.8-1.6-8.3-1.6
	c-5.5,0-10.5,1-14.8,3.1c-2.2,1-4.3,2.6-6.3,4.6c-2,2-3,3.8-3,5.3c0,1,0.3,1.8,0.8,2.5c0.2,0.3,0.6,0.6,1.1,1
	c0.2,0.1,0.1,0.2-0.3,0.2c-2.1-0.5-3.2-1.9-3.2-4.3s1.2-4.6,3.6-6.8c1.8-1.6,3.8-2.8,6.1-3.8c4.7-2,10-3,16-3
	c4.3,0,7.7,0.6,10.2,1.9c2.9,1.4,4.4,3.5,4.4,6.3c0,1.1-0.2,2.2-0.7,3.4c-0.7,2.1-2.6,3.7-5.7,4.7c-2.3,0.8-4.7,1.2-7.4,1.2
	c2,0.1,3.8,0.9,5.2,2.3C40,22.7,40.7,24.5,40.7,26.5z M7.5,24.6c0,0-0.1,0-0.3,0.1c-2.6,3.7-3.8,6.7-3.8,8.9c0,0.9,0.2,1.8,0.7,2.5
	c0.1,0.2,0.3,0.3,0.5,0.3c1.1,0,3.2-1.6,6.4-4.7l-0.2-0.2C9.4,26.9,8.3,24.6,7.5,24.6z M48.2,37c-0.4,0-0.7-0.1-1-0.2
	c-2.2-0.6-3.3-1.9-3.3-3.7c0-2.4,1.5-5.2,4.6-8.4c3.1-3.2,5.8-4.8,8.2-4.8c0.8,0,1.4,0.2,1.9,0.7c0.5,0.4,0.8,1,0.8,1.6
	c0,1.9-1.5,3.8-4.4,5.6c-2.9,1.8-5.3,2.7-7.2,2.7c-0.3,0-0.5,0-0.7-0.1c-0.5,0.9-0.8,1.9-0.8,3c0,1.8,0.9,2.7,2.6,2.7
	c1.7,0,3.9-1.2,6.7-3.5c2.1-1.7,3.9-3.5,5.4-5.4c0.3-0.4,0.6-0.6,0.8-0.6c0.2,0,0.3,0.1,0.3,0.3s-0.1,0.5-0.4,0.9
	c-1.9,2.5-4.1,4.6-6.8,6.6S50,37,48.2,37L48.2,37z M58,22.1c0-0.4-0.4-0.6-1.3-0.6c-0.9,0-2.1,0.7-3.8,2c-2.2,1.8-3.9,3.7-5.1,5.7
	c0.2,0.1,0.4,0.1,0.7,0.1c1.3,0,3.1-0.7,5.3-2.1s3.6-2.9,4.1-4.6C58,22.4,58,22.2,58,22.1z M71.9,37c-2.7,0-5.1-2.2-7-6.5
	c-0.5,0.7-1.6,2.8-3.3,6.1c-1.2-0.5-1.9-1.1-1.9-2c0-1.5,2.2-5.6,6.7-12.3s7.5-10.6,9.2-11.8c0.1-0.1,0.4-0.2,0.8-0.2
	c1.1,0,1.6,0.3,1.6,0.8c0,0.3-1.2,1.8-3.6,4.7c-2.4,2.8-3.8,4.6-4,5.1c3.2-1.6,5.7-2.4,7.5-2.4c1.1,0,2,0.4,2.8,1.3
	c0.7,0.7,1.1,1.5,1.1,2.2v0.3c-0.3,2-1.7,3.6-4.2,4.9c-2,1.1-3.9,1.6-5.6,1.6c-1.7,0-2.9-0.2-3.6-0.7c-0.2,0-0.4,0-0.5,0.2
	s-0.1,0.3-0.1,0.5c1,4.3,2.6,6.4,4.8,6.4c1.2,0,2.7-0.7,4.6-2c1.9-1.3,3.8-3.2,5.8-5.6c0.2-0.2,0.5-0.4,0.7-0.4s0.3,0.1,0.3,0.3
	s-0.1,0.5-0.4,0.8c-1.9,2.3-3.6,4.1-5.3,5.4C75.8,36,73.6,37,71.9,37z M79.4,21.1c0-0.3-0.2-0.6-0.5-0.8c-0.3-0.3-0.6-0.4-1-0.4
	c-1.9,0-4.1,0.8-6.7,2.3s-4.2,3.3-4.8,5.3c0.3,0,1.1,0.1,2.5,0.2c1.6,0,3.6-0.6,6.1-1.9C77.9,24.3,79.4,22.7,79.4,21.1z M96.3,36.2
	c-2,0-3.1-1.2-3.1-3.6c0-1.4,0.5-2.9,1.4-4.5c1-1.6,2.1-3.6,3.5-5.8c-4.4,2.2-8.5,5.5-12.1,9.8c-2,3-3.2,4.5-3.5,4.5
	c-1,0-1.5-0.3-1.5-0.9c0-0.3,0.2-0.9,0.6-1.7c3.4-6,5.9-10.4,7.6-13.2c4.1-6.6,7-10.2,8.7-10.8c0.1,0,0.1-0.1,0.2-0.1
	c0.5,0,0.8,0.4,0.9,1.1c-0.1,0.7-1.9,3.4-5.4,7.9c-3.6,4.6-5.7,7.6-6.2,9c1.3-0.9,3.5-2.5,6.7-4.7c3.4-2.4,5.7-3.6,6.8-3.6
	s1.7,0.4,1.7,1.3c0,0.1,0,0.2,0,0.3c0,0.1-1.2,1.7-3.6,4.9c-2.4,3.2-3.6,5.6-3.6,7.1c0,0.8,0.3,1.2,0.9,1.2c1.9-0.1,4.7-2.3,8.4-6.8
	c0.3-0.3,0.5-0.5,0.7-0.5c0.2,0,0.2,0.1,0.2,0.3c0,0.7-1.7,2.6-5.1,5.6C98.5,35.2,97.1,36.2,96.3,36.2z M116.5,36.6
	c-2.6,0-3.9-1.4-3.9-4.3c0-1.5,0.4-3.1,1.1-4.8c0.8-1.7,1.6-3.2,2.5-4.4c-0.2,0-0.4,0.1-0.7,0.1c-0.8,0-1.5-0.6-2.1-1.8l-3.8,5
	c-2.1,2.7-3.4,4-3.7,4c-0.2,0-0.3-0.1-0.3-0.2c0-0.3,0.3-0.8,0.9-1.5c3-3.5,5.1-6.5,6.4-8.9c0.8-3,1.8-4.5,3-4.5
	c0.8,0,1.2,0.3,1.2,1c0,0.7-0.4,1.6-1.3,2.7l-1.2,1.7c0,0.7,0.5,1.1,1.6,1.1c0.6,0,1.3-0.2,2.1-0.7l1.4-0.8c0.1,0,0.2-0.1,0.5-0.1
	s0.6,0.2,0.9,0.5s0.4,0.7,0.3,0.9l-3.6,4.5c-2.2,2.8-3.3,5.1-3.3,6.7c0,1.6,0.8,2.5,2.3,2.5c1.6,0,3.6-0.8,5.9-2.5
	c1.4-1,2.7-2.1,3.8-3.4c1.1-1.2,1.7-1.9,1.8-1.9c0.2,0,0.4,0.1,0.4,0.4c0,0.3-0.2,0.6-0.5,0.9l-1.7,1.9c-0.9,1-2,1.9-3.1,2.8
	C120.5,35.6,118.2,36.6,116.5,36.6L116.5,36.6z M143.2,36.7c-0.2,0-0.5,0.1-1.1,0.1c-0.6,0-1.1-0.2-1.7-0.7c-0.6-0.5-0.9-1-0.9-1.7
	s0.1-1.5,0.4-2.4c0.3-0.9,0.4-1.5,0.5-2c-4,4.6-7.1,7-9.4,7c-1.4,0-2.2-0.9-2.3-2.7v-0.4c0-1.5,0.9-3.5,2.7-6c-1,0.9-2,1.9-3.1,3.1
	c-0.1,0.1-0.3,0.2-0.5,0.2c-0.1,0-0.2-0.1-0.2-0.3s0.2-0.5,0.5-0.9l7.2-8.4c0.9-1,1.8-1.6,2.8-1.6c0.9,0,1.4,0.3,1.4,0.9
	c0,0.2-0.1,0.5-0.3,0.7c-1.4,1.3-3.1,3.4-5.2,6.4c-2.1,3-3.1,5.2-3.1,6.6c0,0.6,0.2,0.9,0.6,0.9c1.5,0,3.6-1.4,6.3-4.3
	c1-1,2.8-3.1,5.4-6.4c2.6-3.3,4.4-5,5.2-5c1.2,0,1.9,0.5,1.9,1.5c0,0.3-0.7,1.4-2.2,3c-2,2.4-3.5,4.3-4.5,5.8
	c-1,1.5-1.6,2.7-1.6,3.7s0.3,1.4,0.8,1.4c0.2,0,0.5-0.1,0.8-0.2c2.4-1,5.3-3.5,8.6-7.3c0.2-0.2,0.4-0.4,0.6-0.4s0.3,0.1,0.3,0.3
	s-0.1,0.5-0.4,0.8c-1.5,1.7-3.2,3.5-5.3,5.2C145.4,35.5,144,36.5,143.2,36.7z M156.5,34.2c-1.4,1-2.4,1.5-3,1.5
	c-0.8,0-1.2-0.4-1.2-1.3c0-0.3,0.1-0.7,0.3-1.1s0.4-0.7,0.6-0.7c0.3,0,0.4,0.3,0.2,0.8c-0.1,0.5,0.1,0.8,0.5,0.8s0.9-0.2,1.5-0.6
	l-2-1.5c-0.1-0.1-0.1-0.2-0.1-0.4c0-0.2,0.2-0.4,0.5-0.8c0.3-0.3,0.6-0.5,0.8-0.5c0.2,0,1,0.6,2.5,1.8c4.3-4.9,7.5-8,9.5-9.6
	c-2.7-0.8-4.8-1.2-6.1-1.2c-0.4,0-0.7,0-1.1,0.1c-0.3,0.1-0.7,0.3-1.1,0.6c-0.4,0.4-0.6,0.8-0.6,1.2c0,0.5,0.2,0.8,0.6,1.1
	s0.6,0.5,0.6,0.7s-0.1,0.3-0.4,0.3c-0.3,0-0.7-0.3-1.3-1c-0.6-0.7-0.8-1.4-0.8-2.1c0-1.2,0.9-2,2.7-2.4c0.9-0.2,1.9-0.3,2.9-0.3
	c1,0,3.4,0.6,7.2,1.9c0.5-0.3,1-0.4,1.6-0.4c1.5,0,2.2,0.4,2.2,1.3c0,0.3-0.2,0.7-0.7,1c-0.5,0.3-1,0.4-1.6,0.4
	c-0.6,0-1.2-0.1-1.7-0.4c-3.3,2-6.8,5.3-10.6,9.7l1.9,1.5c1.5,1,3.2,1.5,5.2,1.5c2,0,3.4-0.3,4.4-0.9c0.9-0.6,1.4-1.4,1.4-2.4
	c0-0.5-0.1-0.9-0.3-1.3c-0.2-0.4,0-0.6,0.5-0.6c0.2,0,0.3,0.2,0.5,0.6c0.2,0.4,0.3,0.9,0.3,1.4c0,1.4-0.7,2.5-2,3.4
	c-1.3,0.9-3,1.4-5.1,1.4c-2.3,0-4.2-0.4-5.7-1.3C158.8,35.9,157.8,35.2,156.5,34.2z"/>
<path d="M222.6,17.9c0,4.3-2.2,8.5-6.7,12.4c-6.8,6.1-14.5,9.2-22.9,9.2c-0.9,0-1.7,0-2.2-0.1c-2.8-0.1-5-1-6.7-2.7
	s-2.5-3.9-2.5-6.5c0-2.7,0.7-5.6,2.1-8.7c1.8-4,5.3-7.9,10.6-11.6c6-4.3,12.3-6.4,18.7-6.4c3.5,0,6.1,0.7,7.9,2s2.7,3,2.7,5
	c0,1.2-0.5,2.8-1.5,4.6C222.5,15.9,222.6,16.9,222.6,17.9z M221.5,13.4c0.3-0.8,0.5-1.8,0.5-2.8s-0.4-2.1-1.1-3.1
	c-1.5-2.1-4.1-3.1-7.9-3.1c-5.2,0-10.2,1.6-14.8,4.9c-4.6,3.2-8.3,7.3-10.9,12.2c-1.9,3.6-2.9,6.8-2.9,9.6c0,4.6,2.3,7,6.9,7.2
	c0.5,0,1,0.1,1.5,0.1c6.8,0,13.3-2.8,19.5-8.3c4.4-4,6.8-7.7,7.2-11.3c-1.8,2-4.9,4.3-9.4,7.1l-0.4,0.1c0,0-0.1,0-0.1-0.1
	c0-0.1,0.5-0.6,1.4-1.4l2.9-2.4c2.5-2.2,4.3-4,5.5-5.4c-0.2-1.9-1.1-3.6-2.6-4.9s-3.2-2.2-5.2-2.8c-1-0.2-2.5-0.4-4.5-0.5
	c-2-0.1-3-0.1-3-0.2c0-0.1,0-0.1,0.1-0.2c1.6-0.5,3.1-0.8,4.6-0.8s3.2,0.2,5.1,0.7C217.5,9,220.1,10.8,221.5,13.4L221.5,13.4z
	 M237,19.6l7.5-0.1c0.1,0.1,0.2,0.1,0.2,0.2c0,0.3-2.2,0.7-6.5,1.3c-4.3,0.6-6.6,0.9-7,1c-0.7,0.6-1.9,2.3-3.6,5.3s-2.7,5.1-2.7,6.4
	c0,1.3,0.9,1.9,2.7,1.9c0.8,0,1.9-0.3,3.3-0.8s2.4-1,3.1-1.5c1.9-1.2,4-3,6.2-5.4c0.5-0.5,0.8-0.7,1-0.7c0.1,0,0.2,0.1,0.2,0.3
	s-0.3,0.6-0.8,1.2c-1.8,2.2-3.8,4-6.1,5.4c-2.7,1.7-5.3,2.5-7.7,2.5c-1.1,0-1.9-0.2-2.6-0.7c-0.7-0.5-1-1.4-1-2.8
	c0-1.4,0.6-3.4,1.9-5.9c1.2-2.5,2.2-4.3,2.9-5.5c-0.5,0.1-0.9,0.2-1.2,0.2c-1,0-1.5-0.4-1.5-1.2c0-0.6,0.4-1,1.2-1.2
	c0.1,0,0.3,0,0.5-0.1h3c0.6-0.8,1.3-1.7,2.1-2.8c1-1.2,1.6-1.9,2-1.9c0.3,0,0.8,0.1,1.3,0.4c0.5,0.3,0.8,0.6,0.8,1
	c0,0.4-0.8,1.5-2.5,3.4C234.4,19.6,235.6,19.6,237,19.6z M258.5,20.8l0.7-0.2c0.4,0,0.7,0.2,1.1,0.5c0.3,0.3,0.5,0.6,0.5,0.7
	c0,0.2-1.1,1.8-3.2,5c-2.1,3.2-3.2,5.4-3.2,6.6c0,0.1,0,0.2,0.1,0.3c0.2,0.8,0.6,1.2,1.1,1.2c1.8,0,5.1-3,9.9-8.9
	c0.1-0.1,0.2-0.2,0.4-0.2s0.2,0.1,0.2,0.4s-0.2,0.6-0.5,1c-4.4,5.9-7.8,8.9-10.1,8.9c-0.3,0-0.6-0.1-0.9-0.2
	c-1.5-0.6-2.3-1.7-2.3-3.4c0-0.6,0.1-1.2,0.2-1.8l-3.2,3.1c-2,1.8-3.5,2.7-4.4,2.7s-1.8-0.3-2.6-0.9c-0.9-0.7-1.4-1.6-1.4-2.8
	c0-2.5,1.8-5.6,5.3-9.1c3.5-3.5,6.8-5.3,9.7-5.3c1.1,0,1.9,0.4,2.3,1.2c0.1,0.3,0.2,0.5,0.3,0.7S258.4,20.8,258.5,20.8L258.5,20.8z
	 M242.9,33.6c0,1.2,0.4,1.9,1.3,1.9c2,0,4.7-2.2,8.2-6.6l5.5-7.6c-0.3-0.5-0.7-0.7-1.4-0.7c-2.1,0-4.9,1.6-8.4,4.9
	S242.9,31.5,242.9,33.6L242.9,33.6z M267.6,37c-0.4,0-0.7-0.1-1-0.2c-2.2-0.6-3.3-1.9-3.3-3.7c0-2.4,1.5-5.2,4.6-8.4
	c3.1-3.2,5.8-4.8,8.2-4.8c0.8,0,1.4,0.2,2,0.7c0.5,0.4,0.8,1,0.8,1.6c0,1.9-1.5,3.8-4.4,5.6c-2.9,1.8-5.3,2.7-7.1,2.7
	c-0.3,0-0.5,0-0.7-0.1c-0.5,0.9-0.8,1.9-0.8,3c0,1.8,0.9,2.7,2.6,2.7s3.9-1.2,6.7-3.5c2.1-1.7,3.9-3.5,5.4-5.4
	c0.3-0.4,0.6-0.6,0.8-0.6s0.3,0.1,0.3,0.3s-0.1,0.5-0.4,0.9c-1.9,2.5-4.1,4.6-6.8,6.6S269.4,37,267.6,37z M277.4,22.1
	c0-0.4-0.4-0.6-1.3-0.6s-2.1,0.7-3.8,2c-2.2,1.8-3.9,3.7-5.1,5.7c0.2,0.1,0.4,0.1,0.7,0.1c1.3,0,3.1-0.7,5.3-2.1s3.6-2.9,4.1-4.6
	C277.4,22.4,277.4,22.2,277.4,22.1L277.4,22.1z M294.7,15.9c1,0,1.9,0.3,2.7,1s1.1,1.7,1.1,2.9c0,2.7-2.3,6.2-6.8,10.3
	c-3.8,3.5-7,5.6-9.3,6.3c-0.4,0-0.9-0.2-1.5-0.6s-0.9-0.8-0.9-1.1c0-0.8,0.8-3.3,2.5-7.7s2.8-6.9,3.4-7.4c0.1-0.1,0.4-0.2,0.7-0.2
	c0.3,0,0.6,0.2,1,0.5s0.5,0.7,0.6,1.2c0,0-0.9,2-2.6,6s-2.5,6.4-2.4,7.1c1.5-0.5,4.2-2.3,8-5.5c3.8-3.2,5.7-6,5.7-8.6
	c0-1.5-0.8-2.6-2.3-3.3c-0.2-0.1-0.4-0.3-0.4-0.5C294.1,16.1,294.3,15.9,294.7,15.9L294.7,15.9z"/>
</svg>

